<svg xmlns="http://www.w3.org/2000/svg" width="79" height="79" viewBox="0 0 79 79">
  <g id="Group_1599" data-name="Group 1599" transform="translate(0.425 -0.202)">
    <g id="arrow-circle" transform="translate(-0.425 0.202)">
      <circle id="ellipse" cx="39.5" cy="39.5" r="39.5" fill="#52c8fa"/>
    </g>
    <path id="Icon_ionic-ios-call" data-name="Icon ionic-ios-call" d="M44.857,37.048a34.914,34.914,0,0,0-7.293-4.88c-2.186-1.05-2.987-1.028-4.534.087-1.288.931-2.121,1.8-3.6,1.472s-4.4-2.532-7.239-5.356-5.043-5.757-5.356-7.239.552-2.316,1.472-3.6c1.115-1.547,1.147-2.348.087-4.534A34.224,34.224,0,0,0,13.508,5.7c-1.591-1.591-1.948-1.244-2.824-.931A16.071,16.071,0,0,0,8.1,6.143,7.8,7.8,0,0,0,4.992,9.422c-.617,1.331-1.331,3.809,2.3,10.28a57.361,57.361,0,0,0,10.085,13.45h0l.011.011.011.011h0a57.585,57.585,0,0,0,13.45,10.085c6.471,3.636,8.949,2.922,10.28,2.3a7.669,7.669,0,0,0,3.279-3.106,16.071,16.071,0,0,0,1.374-2.586C46.1,39,46.458,38.639,44.857,37.048Z" transform="translate(13.948 13.791)" fill="#fff"/>
  </g>
</svg>
