<svg xmlns="http://www.w3.org/2000/svg" width="79" height="79" viewBox="0 0 79 79">
  <g id="Group_1600" data-name="Group 1600" transform="translate(0.111 -0.202)">
    <g id="arrow-circle" transform="translate(-0.111 0.202)">
      <circle id="ellipse" cx="39.5" cy="39.5" r="39.5" fill="#52c8fa"/>
      <g id="Group_1596" data-name="Group 1596" transform="translate(18.382 21.008)">
        <path id="Icon_material-add-a-photo" data-name="Icon material-add-a-photo" d="M4.9,6.4V1.5H8.164V6.4h4.9V9.664h-4.9v4.9H4.9v-4.9H0V6.4Zm4.9,9.8V11.3h4.9V6.4h11.43l2.988,3.266h5.176a3.275,3.275,0,0,1,3.266,3.266V32.525a3.275,3.275,0,0,1-3.266,3.266H8.164A3.275,3.275,0,0,1,4.9,32.525V16.2Zm11.43,14.7a8.164,8.164,0,1,0-8.164-8.164A8.167,8.167,0,0,0,21.228,30.892ZM16,22.728A5.225,5.225,0,1,0,21.228,17.5,5.22,5.22,0,0,0,16,22.728Z" transform="translate(0 -1.5)" fill="#fff"/>
      </g>
    </g>
  </g>
</svg>
