<svg xmlns="http://www.w3.org/2000/svg" width="79" height="79" viewBox="0 0 79 79">
  <g id="Group_1602" data-name="Group 1602" transform="translate(0.445 -0.202)">
    <g id="arrow-circle" transform="translate(-0.445 0.202)">
      <circle id="ellipse" cx="39.5" cy="39.5" r="39.5" fill="#52c8fa"/>
    </g>
    <g id="Group_1598" data-name="Group 1598" transform="translate(20.327 22.554)">
      <path id="Icon_awesome-home" data-name="Icon awesome-home" d="M19.987,10.538,6.844,21.363V33.047a1.141,1.141,0,0,0,1.141,1.141l7.989-.021a1.141,1.141,0,0,0,1.135-1.141V26.2a1.141,1.141,0,0,1,1.141-1.141h4.563A1.141,1.141,0,0,1,23.952,26.2v6.818a1.141,1.141,0,0,0,1.141,1.144l7.986.022a1.141,1.141,0,0,0,1.141-1.141V21.355L21.078,10.538A.869.869,0,0,0,19.987,10.538ZM40.749,17.9l-5.96-4.913V3.109a.855.855,0,0,0-.855-.855H29.941a.855.855,0,0,0-.855.855V8.285L22.7,3.034a3.422,3.422,0,0,0-4.349,0L.309,17.9A.855.855,0,0,0,.2,19.1l1.818,2.21a.855.855,0,0,0,1.206.116L19.987,7.615a.869.869,0,0,1,1.091,0L37.847,21.427a.855.855,0,0,0,1.2-.114L40.87,19.1a.855.855,0,0,0-.121-1.207Z" transform="translate(0.001 -2.254)" fill="#fff"/>
    </g>
  </g>
</svg>
